<?xml version="1.0" encoding="UTF-8"?>
<svg xmlns="http://www.w3.org/2000/svg" xmlns:xlink="http://www.w3.org/1999/xlink" width="512" height="512" viewBox="0 0 58 58" version="1.1"><!-- Generator: Sketch 51.3 (57544) - http://www.bohemiancoding.com/sketch --><title>006 - Moon</title><desc>Created with Sketch.</desc><defs/><g id="Page-1" stroke="none" stroke-width="1" fill="none" fill-rule="evenodd"><g id="006---Moon" fill-rule="nonzero"><path d="M58,29 C58.0008108,31.8595078 57.5796063,34.7034806 56.75,37.44 C56.63,37.85 56.49,38.25 56.35,38.65 C53.0488702,48.0107078 45.1885037,55.0320485 35.5160627,57.2600955 C25.8436217,59.4881426 15.7036419,56.6131823 8.64,49.64 C8.36,49.37 8.09,49.1 7.83,48.82 C3.74591747,44.4725964 1.10842995,38.9670595 0.28,33.06 C0.23,32.67 0.18,32.29 0.15,31.9 C0.0493918237,30.936616 -0.000676790914,29.9686228 -6.24500451e-15,29 C0.00491244859,12.9857775 12.9857775,0.00491244859 29,1.14475486e-15 C31.5743309,-0.00450623211 34.1374843,0.338593041 36.62,1.02 C47.4008899,3.95620093 55.5353394,12.825902 57.53,23.82 C57.61,24.24 57.67,24.66 57.73,25.08 C57.9111836,26.378784 58.0014033,27.6886399 58,29 Z" id="Shape" fill="#84B5CB"/><path d="M51,23 C51.0065299,33.0655175 44.731527,42.0657092 35.2847323,45.5402961 C25.8379376,49.0148829 15.2266806,46.2255572 8.70964582,38.5546418 C2.19261109,30.8837264 1.15458963,19.9611981 6.11,11.2 C11.5944643,4.1241048 20.0474864,-0.0119305172 29,1.16432471e-15 C31.5743309,-0.00450623211 34.1374843,0.338593041 36.62,1.02 C45.3575291,4.83545268 51.0037328,13.4657418 51,23 Z" id="Shape" fill="#9FC9D3"/><circle id="Oval" fill="#547580" cx="30" cy="12" r="7"/><circle id="Oval" fill="#547580" cx="27" cy="33" r="8"/><path d="M16,40 C16.0013611,44.5054272 12.9865667,48.4541525 8.64,49.64 C8.36,49.37 8.09,49.1 7.83,48.82 C3.74591747,44.4725964 1.10842995,38.9670595 0.28,33.06 C0.23,32.67 0.18,32.29 0.15,31.9 C1.84825758,30.6605319 3.89754083,29.9949527 6,30 C11.5220243,30.0019869 15.9980131,34.4779757 16,40 Z" id="Shape" fill="#547580"/><path d="M58,29 C58.0008108,31.8595078 57.5796063,34.7034806 56.75,37.44 C56.63,37.85 56.49,38.25 56.35,38.65 C55.5887649,38.8843573 54.7964902,39.0023556 54,39 C50.7022778,38.9992231 47.7429319,36.9749881 46.5467395,33.9018633 C45.3505472,30.8287384 46.1626431,27.3364962 48.5920435,25.1064769 C51.0214439,22.8764576 54.5702942,22.365657 57.53,23.82 C57.61,24.24 57.67,24.66 57.73,25.08 C57.9111836,26.378784 58.0014033,27.6886399 58,29 Z" id="Shape" fill="#547580"/><circle id="Oval" fill="#547580" cx="36" cy="47" r="5"/><circle id="Oval" fill="#547580" cx="13" cy="18" r="4"/><circle id="Oval" fill="#547580" cx="45" cy="16" r="3"/><circle id="Oval" fill="#547580" cx="38" cy="24" r="2"/><circle id="Oval" fill="#547580" cx="42" cy="38" r="2"/><circle id="Oval" fill="#547580" cx="46" cy="47" r="2"/><circle id="Oval" fill="#547580" cx="21" cy="47" r="2"/><circle id="Oval" fill="#547580" cx="7" cy="27" r="2"/><circle id="Oval" fill="#547580" cx="17" cy="9" r="2"/></g></g></svg>
